<svg width="1060" height="172" viewBox="0 0 1060 172" fill="none" xmlns="http://www.w3.org/2000/svg">
<path d="M56.51 131.38C43.42 131.38 32.625 128.575 24.125 122.965C15.6817 117.298 9.64667 109.62 6.02 99.93C2.39333 90.24 1.31667 79.3033 2.79 67.12C3.92333 58.2233 6.33167 49.8933 10.015 42.13C13.755 34.3667 18.6283 27.5383 24.635 21.645C30.6417 15.7517 37.64 11.1617 45.63 7.87499C53.6767 4.53166 62.5733 2.85999 72.32 2.85999C83.4267 2.85999 92.635 4.75833 99.945 8.555C107.255 12.3517 112.95 17.395 117.03 23.685C121.11 29.975 123.802 36.9167 125.105 44.51C126.465 52.0467 126.663 59.5833 125.7 67.12C124.68 75.45 122.357 83.4683 118.73 91.175C115.103 98.825 110.315 105.682 104.365 111.745C98.415 117.808 91.4167 122.597 83.37 126.11C75.3233 129.623 66.37 131.38 56.51 131.38ZM58.55 113.87C64.7833 113.87 70.8467 112.057 76.74 108.43C82.6333 104.747 87.6767 99.42 91.87 92.45C96.12 85.48 98.84 77.0367 100.03 67.12C101.107 58.2233 100.653 50.2617 98.67 43.235C96.7433 36.1517 93.3717 30.57 88.555 26.49C83.7383 22.41 77.59 20.37 70.11 20.37C62.29 20.37 55.4617 22.5233 49.625 26.83C43.7883 31.1367 39.085 36.8317 35.515 43.915C31.945 50.9983 29.65 58.7333 28.63 67.12C27.8933 72.9567 27.95 78.68 28.8 84.29C29.65 89.8433 31.2933 94.8583 33.73 99.335C36.1667 103.755 39.4533 107.297 43.59 109.96C47.7267 112.567 52.7133 113.87 58.55 113.87ZM198.981 129L183.681 89.39L183.001 85.31L180.281 88.71L169.911 98.4C169.571 90.58 170.931 83.4117 173.991 76.895C177.051 70.3783 180.961 64.6267 185.721 59.64L203.231 41.11L229.241 42.3L198.301 71.54L225.161 129H198.981ZM134.551 129L150.361 0.139997L173.821 1.32999L158.181 129H134.551ZM279.225 131.21C271.235 131.21 263.981 129.425 257.465 125.855C251.005 122.228 246.046 116.987 242.59 110.13C239.19 103.217 238.085 94.83 239.275 84.97C240.238 76.98 242.505 70.095 246.075 64.315C249.701 58.4783 254.036 53.69 259.08 49.95C264.123 46.21 269.421 43.4333 274.975 41.62C280.528 39.8067 285.741 38.9 290.615 38.9C299.625 38.9 307.303 40.855 313.65 44.765C319.996 48.675 324.643 54.115 327.59 61.085C330.593 67.9983 331.528 75.96 330.395 84.97C329.488 92.1667 327.391 98.6267 324.105 104.35C320.818 110.073 316.738 114.947 311.865 118.97C307.048 122.937 301.806 125.968 296.14 128.065C290.473 130.162 284.835 131.21 279.225 131.21ZM281.265 113.87C285.685 113.87 289.566 112.567 292.91 109.96C296.253 107.353 298.945 103.868 300.985 99.505C303.081 95.1417 304.441 90.2967 305.065 84.97C305.745 79.7 305.575 74.8833 304.555 70.52C303.591 66.1567 301.75 62.7 299.03 60.15C296.366 57.5433 292.825 56.24 288.405 56.24C283.985 56.24 280.103 57.5433 276.76 60.15C273.416 62.7 270.696 66.1567 268.6 70.52C266.503 74.8833 265.115 79.7 264.435 84.97C263.415 93.47 264.406 100.412 267.41 105.795C270.47 111.178 275.088 113.87 281.265 113.87ZM348.304 171.16C346.038 171.047 343.601 170.763 340.994 170.31C338.444 169.913 335.838 169.12 333.174 167.93L340.484 152.63C342.468 153.14 344.224 153.452 345.754 153.565C347.341 153.735 348.928 153.82 350.514 153.82C354.481 153.82 357.853 152.63 360.629 150.25C363.463 147.87 366.126 144.357 368.619 139.71C371.169 135.12 373.974 129.453 377.034 122.71L412.224 41.11L435.854 42.3L394.884 127.13C391.144 134.44 387.688 140.843 384.514 146.34C381.341 151.837 378.083 156.427 374.739 160.11C371.396 163.793 367.599 166.542 363.349 168.355C359.156 170.225 354.141 171.16 348.304 171.16ZM366.324 126.79L345.244 41.11H370.744L377.714 81.23C378.621 86.16 378.564 91.5433 377.544 97.38C376.581 103.217 375.051 108.77 372.954 114.04C370.858 119.31 368.648 123.56 366.324 126.79ZM486.108 131.21C478.345 131.21 471.8 129.85 466.473 127.13C461.146 124.353 456.925 120.67 453.808 116.08C450.748 111.433 448.68 106.305 447.603 100.695C446.526 95.0283 446.328 89.3333 447.008 83.61C448.198 74.26 451.201 66.2417 456.018 59.555C460.891 52.8683 466.898 47.7683 474.038 44.255C481.235 40.685 488.941 38.9 497.158 38.9C503.448 38.9 509.001 40.1467 513.818 42.64C518.635 45.0767 522.375 48.5333 525.038 53.01C527.701 57.4867 529.005 62.785 528.948 68.905C528.948 75.025 527.248 81.74 523.848 89.05H476.248C477.948 85.14 480.13 81.8533 482.793 79.19C485.513 76.47 488.318 75.11 491.208 75.11H506.338C507.245 71.6533 507.33 68.4233 506.593 65.42C505.913 62.4167 504.496 60.0083 502.343 58.195C500.19 56.325 497.385 55.39 493.928 55.39C490.811 55.39 487.61 56.325 484.323 58.195C481.036 60.065 478.118 63.0117 475.568 67.035C473.075 71.0583 471.431 76.3 470.638 82.76C469.845 89.2767 470.156 94.8583 471.573 99.505C473.046 104.095 475.426 107.608 478.713 110.045C482.056 112.482 486.108 113.7 490.868 113.7C494.778 113.7 498.716 113.218 502.683 112.255C506.65 111.235 511.211 109.62 516.368 107.41L520.448 123.22C513.988 126.11 507.953 128.15 502.343 129.34C496.79 130.587 491.378 131.21 486.108 131.21ZM585.267 129L599.037 5.40999H619.947L653.097 104.69L654.287 109.96L655.477 104.69L688.627 5.40999H709.537L723.137 129H707.667L697.977 30.06L697.467 22.75L695.427 30.06L661.767 127.3H646.637L612.807 29.89L610.597 22.75L610.087 29.89L600.567 129H585.267ZM782.674 130.7C775.081 130.7 768.168 128.943 761.934 125.43C755.758 121.917 750.828 116.76 747.144 109.96C743.518 103.16 741.704 94.83 741.704 84.97C741.704 77.2067 742.866 70.4633 745.189 64.74C747.569 59.0167 750.714 54.285 754.624 50.545C758.591 46.805 763.011 44.0283 767.884 42.215C772.758 40.345 777.688 39.41 782.674 39.41C791.344 39.41 798.739 41.45 804.859 45.53C810.979 49.5533 815.626 55.0217 818.799 61.935C822.029 68.7917 823.644 76.47 823.644 84.97C823.644 92.3367 822.539 98.8817 820.329 104.605C818.176 110.272 815.201 115.06 811.404 118.97C807.608 122.823 803.244 125.742 798.314 127.725C793.384 129.708 788.171 130.7 782.674 130.7ZM782.674 118.46C788.171 118.46 792.704 116.93 796.274 113.87C799.844 110.81 802.479 106.758 804.179 101.715C805.936 96.615 806.814 91.0333 806.814 84.97C806.814 77.3767 805.681 71.115 803.414 66.185C801.204 61.255 798.258 57.6 794.574 55.22C790.948 52.84 786.981 51.65 782.674 51.65C778.368 51.65 774.373 52.84 770.689 55.22C767.063 57.6 764.116 61.255 761.849 66.185C759.639 71.115 758.534 77.3767 758.534 84.97C758.534 94.83 760.631 102.877 764.824 109.11C769.018 115.343 774.968 118.46 782.674 118.46ZM868.423 130.7C864.117 130.7 859.498 130.303 854.568 129.51C849.695 128.773 843.943 126.79 837.313 123.56L841.393 112.34C845.757 114.437 850.12 115.995 854.483 117.015C858.847 117.978 862.813 118.46 866.383 118.46C871.483 118.46 875.28 117.27 877.773 114.89C880.267 112.51 881.513 109.45 881.513 105.71C881.513 102.593 880.522 100.015 878.538 97.975C876.555 95.935 874.005 94.1217 870.888 92.535C867.772 90.9483 864.457 89.3617 860.943 87.775C857.43 86.1317 854.115 84.2617 850.998 82.165C847.882 80.0117 845.332 77.3483 843.348 74.175C841.365 71.0017 840.373 67.0633 840.373 62.36C840.373 58.7333 841.393 55.1917 843.433 51.735C845.53 48.2217 848.59 45.3317 852.613 43.065C856.693 40.7417 861.68 39.58 867.573 39.58C870.803 39.58 874.345 39.8917 878.198 40.515C882.108 41.1383 886.443 42.3 891.203 44L887.293 55.05C883.723 53.86 880.408 53.01 877.348 52.5C874.345 51.9333 871.653 51.65 869.273 51.65C865.363 51.65 862.105 52.5567 859.498 54.37C856.948 56.1833 855.673 58.8467 855.673 62.36C855.673 65.3633 856.665 67.885 858.648 69.925C860.632 71.965 863.182 73.7783 866.298 75.365C869.415 76.9517 872.73 78.595 876.243 80.295C879.757 81.9383 883.072 83.865 886.188 86.075C889.305 88.285 891.855 91.0333 893.838 94.32C895.822 97.55 896.813 101.63 896.813 106.56C896.813 110.867 895.482 114.862 892.818 118.545C890.155 122.172 886.67 125.118 882.363 127.385C878.057 129.595 873.41 130.7 868.423 130.7ZM952.576 130.7C946.343 130.7 940.676 129.538 935.576 127.215C930.533 124.892 926.198 121.662 922.571 117.525C919.001 113.332 916.253 108.43 914.326 102.82C912.399 97.1533 911.436 90.9767 911.436 84.29C911.436 75.11 913.108 67.1767 916.451 60.49C919.851 53.7467 924.668 48.5617 930.901 44.935C937.134 41.2517 944.529 39.41 953.086 39.41C958.923 39.41 964.079 40.7133 968.556 43.32C973.033 45.87 976.631 49.3833 979.351 53.86C982.128 58.28 983.828 63.3233 984.451 68.99C985.131 74.6 984.536 80.4367 982.666 86.5H933.366C934.556 83.27 936.228 80.5783 938.381 78.425C940.591 76.215 943.736 75.11 947.816 75.11H969.406C969.916 70.7467 969.406 66.8083 967.876 63.295C966.403 59.725 964.193 56.8917 961.246 54.795C958.356 52.6983 955.069 51.65 951.386 51.65C946.626 51.65 942.433 52.925 938.806 55.475C935.179 58.025 932.346 61.765 930.306 66.695C928.266 71.5683 927.246 77.49 927.246 84.46C927.246 91.2033 928.408 97.125 930.731 102.225C933.111 107.325 936.341 111.32 940.421 114.21C944.501 117.043 949.119 118.46 954.276 118.46C958.186 118.46 961.898 118.063 965.411 117.27C968.924 116.42 973.089 114.777 977.906 112.34L982.156 123.56C976.716 126.337 971.446 128.207 966.346 129.17C961.246 130.19 956.656 130.7 952.576 130.7ZM1031.62 130.7C1027.31 130.7 1022.69 130.303 1017.76 129.51C1012.89 128.773 1007.14 126.79 1000.51 123.56L1004.59 112.34C1008.95 114.437 1013.31 115.995 1017.68 117.015C1022.04 117.978 1026.01 118.46 1029.58 118.46C1034.68 118.46 1038.47 117.27 1040.97 114.89C1043.46 112.51 1044.71 109.45 1044.71 105.71C1044.71 102.593 1043.72 100.015 1041.73 97.975C1039.75 95.935 1037.2 94.1217 1034.08 92.535C1030.97 90.9483 1027.65 89.3617 1024.14 87.775C1020.62 86.1317 1017.31 84.2617 1014.19 82.165C1011.08 80.0117 1008.53 77.3483 1006.54 74.175C1004.56 71.0017 1003.57 67.0633 1003.57 62.36C1003.57 58.7333 1004.59 55.1917 1006.63 51.735C1008.72 48.2217 1011.78 45.3317 1015.81 43.065C1019.89 40.7417 1024.87 39.58 1030.77 39.58C1034 39.58 1037.54 39.8917 1041.39 40.515C1045.3 41.1383 1049.64 42.3 1054.4 44L1050.49 55.05C1046.92 53.86 1043.6 53.01 1040.54 52.5C1037.54 51.9333 1034.85 51.65 1032.47 51.65C1028.56 51.65 1025.3 52.5567 1022.69 54.37C1020.14 56.1833 1018.87 58.8467 1018.87 62.36C1018.87 65.3633 1019.86 67.885 1021.84 69.925C1023.83 71.965 1026.38 73.7783 1029.49 75.365C1032.61 76.9517 1035.92 78.595 1039.44 80.295C1042.95 81.9383 1046.27 83.865 1049.38 86.075C1052.5 88.285 1055.05 91.0333 1057.03 94.32C1059.02 97.55 1060.01 101.63 1060.01 106.56C1060.01 110.867 1058.68 114.862 1056.01 118.545C1053.35 122.172 1049.86 125.118 1045.56 127.385C1041.25 129.595 1036.6 130.7 1031.62 130.7Z" fill="#0E0E0E"/>
</svg>
